# xmcd
#
# Track frame offsets:
# 150
# 19156
# 38674
# 53238
# 69737
# 89878
# 103741
# 121318
# 136696
# 150735
# 172267
# 192106
# 207604
# 221003
#
# Disc length: 3203 seconds
#
#
# Revision: 1
# Processed by: cddbd v1.5.2PL0 Copyright (c) Steve Scherf et al.
# Submitted via: FreeRIP 2.945 
#
DISCID=d30c810e
DTITLE=Marco Brasil - Ao Vivo
DYEAR=1900
DGENRE=Country
TTITLE0=Texto de Abertura
TTITLE1=Mexe Mexe
TTITLE2=Noís Não Vive Sem Mulher
TTITLE3=Touro de Rodeio
TTITLE4=Brincadeira de Criança
TTITLE5=Saudade de Minha Terra
TTITLE6=De Barretos a Nashville
TTITLE7=Bateu Saudade
TTITLE8=Peão Apaixonado
TTITLE9=Sem Documento
TTITLE10=Pra Dizer Adeus
TTITLE11=Ela é Demais
TTITLE12=Pé de Bode
TTITLE13=Nossa Senhora Aparecida
EXTD=
EXTT0=
EXTT1=
EXTT2=
EXTT3=
EXTT4=
EXTT5=
EXTT6=
EXTT7=
EXTT8=
EXTT9=
EXTT10=
EXTT11=
EXTT12=
EXTT13=
PLAYORDER=
